<?xml version="1.0" encoding="utf-8"?>
<!-- Generator: Adobe Illustrator 23.1.0, SVG Export Plug-In . SVG Version: 6.00 Build 0)  -->
<svg version="1.1" id="Layer_1" xmlns="http://www.w3.org/2000/svg" xmlns:xlink="http://www.w3.org/1999/xlink" x="0px" y="0px"
	 viewBox="0 0 600 600" style="enable-background:new 0 0 600 600;" xml:space="preserve">
<style type="text/css">
	.st0{fill:#FFFFFF;}
</style>
<path class="st0" d="M270.3,31.5c0-6.9-5.6-12.5-12.5-12.5H31.5C24.6,19,19,24.6,19,31.5v226.3c0,6.9,5.6,12.5,12.5,12.5h226.3
	c6.9,0,12.5-5.6,12.5-12.5V31.5z M245.3,245.3H44V44h201.3V245.3z"/>
<path class="st0" d="M581.5,31.5c0-6.9-5.6-12.5-12.5-12.5H342.8c-6.9,0-12.5,5.6-12.5,12.5v226.3c0,6.9,5.6,12.5,12.5,12.5H569
	c6.9,0,12.5-5.6,12.5-12.5V31.5z M556.5,245.3H355.3V44h201.3V245.3z"/>
<path class="st0" d="M270.3,342.8c0-6.9-5.6-12.5-12.5-12.5H31.5c-6.9,0-12.5,5.6-12.5,12.5V569c0,6.9,5.6,12.5,12.5,12.5h226.3
	c6.9,0,12.5-5.6,12.5-12.5V342.8z M245.3,555.3H44v-200h201.3V555.3z"/>
</svg>
