<?xml version="1.0" encoding="utf-8"?>
<!-- Generator: Adobe Illustrator 23.1.0, SVG Export Plug-In . SVG Version: 6.00 Build 0)  -->
<svg version="1.1" id="Capa_1" xmlns="http://www.w3.org/2000/svg" xmlns:xlink="http://www.w3.org/1999/xlink" x="0px" y="0px"
	 viewBox="0 0 512 512" style="enable-background:new 0 0 512 512;" xml:space="preserve">
<style type="text/css">
	.st0{fill:#FFFFFF;}
</style>
<g>
	<g>
		<path class="st0" d="M501.3,106H10.7C4.8,106,0,110.8,0,116.7s4.8,10.7,10.7,10.7h490.7c5.9,0,10.7-4.8,10.7-10.7
			S507.2,106,501.3,106z"/>
	</g>
</g>
<g>
	<g>
		<path class="st0" d="M501.3,245.3H10.7C4.8,245.3,0,250.1,0,256s4.8,10.7,10.7,10.7h490.7c5.9,0,10.7-4.8,10.7-10.7
			S507.2,245.3,501.3,245.3z"/>
	</g>
</g>
<g>
	<g>
		<path class="st0" d="M501.3,384.7H10.7c-5.9,0-10.7,4.8-10.7,10.7S4.8,406,10.7,406h490.7c5.9,0,10.7-4.8,10.7-10.7
			C512,389.4,507.2,384.7,501.3,384.7z"/>
	</g>
</g>
</svg>
