<?xml version="1.0" encoding="utf-8"?>
<!-- Generator: Adobe Illustrator 23.1.0, SVG Export Plug-In . SVG Version: 6.00 Build 0)  -->
<svg version="1.1" id="Capa_1" xmlns="http://www.w3.org/2000/svg" xmlns:xlink="http://www.w3.org/1999/xlink" x="0px" y="0px"
	 viewBox="0 0 512 512" style="enable-background:new 0 0 512 512;" xml:space="preserve">
<style type="text/css">
	.st0{fill:#FFFFFF;}
</style>
<g>
	<g>
		<path class="st0" d="M285.1,384.9c-18.2-18.2-39.8-31.7-63.5-39.8c25.3-17.4,41.9-46.6,41.9-79.6c0-53.2-43.3-96.5-96.5-96.5
			s-96.5,43.3-96.5,96.5c0,33,16.6,62.1,41.9,79.6c-23.6,8.2-45.3,21.6-63.5,39.8C17.4,416.5,0,458.4,0,503h26.1
			c0-77.7,63.2-140.9,140.9-140.9S307.9,425.3,307.9,503H334C334,458.4,316.6,416.5,285.1,384.9z M167,336
			c-38.8,0-70.5-31.6-70.5-70.5s31.6-70.5,70.5-70.5s70.5,31.6,70.5,70.5S205.8,336,167,336z"/>
	</g>
</g>
<g>
	<g>
		<path class="st0" d="M460.1,231.9c-18.2-18.2-39.8-31.7-63.5-39.8c25.3-17.4,41.9-46.6,41.9-79.6c0-53.2-43.3-96.5-96.5-96.5
			s-96.5,43.3-96.5,96.5c0,33,16.6,62.1,41.9,79.6c-9,3.1-17.7,7-26,11.6c-0.5,0.5-1.1,0.9-1.9,1.1c-0.1,0.1-0.2,0.1-0.3,0.2
			c2.4,3,4.4,6.4,6.2,10.1c2.1,4.2,3.8,8.8,5.7,13.3c20.8-12.2,45.1-19.2,70.9-19.2c77.7,0,140.9,63.2,140.9,140.9H509
			C509,305.4,491.6,263.5,460.1,231.9z M342,183c-38.8,0-70.5-31.6-70.5-70.5s31.6-70.5,70.5-70.5s70.5,31.6,70.5,70.5
			S380.8,183,342,183z"/>
	</g>
</g>
</svg>
