<svg width="280" height="24" viewBox="0 0 280 24" xmlns="http://www.w3.org/2000/svg"><title>Arnold Clark logo</title><g fill-rule="nonzero" fill="#FFF"><path d="M278.925 6.115H266.98c-.488 0-.957.252-1.266.632l-3.967 4.89 2.14-11.62h-10.48c-.76 0-1.482.616-1.61 1.377l-4.195 22.474h10.538c.76 0 1.48-.617 1.608-1.378l.97-5.235 2.185 6.613h13.34l-5.075-9.568 7.757-8.185zM242.613 8.606l.458-2.49h-10.536c-.76 0-1.48.616-1.61 1.377l-3.015 16.375h10.528c.76 0 1.48-.617 1.61-1.377l.952-5.416c.296-1.77 1.97-3.205 3.74-3.205.702 0 1.314.225 1.777.608l1.565-8.423c-4.084.528-5.47 2.55-5.47 2.55M215.223 12.877l-.778 4.23c-.29 1.57-1.252 1.57-1.937 1.57-.65 0-1.62 0-1.333-1.57l.78-4.23c.302-1.567 1.054-1.57 1.915-1.57.807 0 1.643.003 1.353 1.57zm2.305-6.764v.002c-.76 0-1.48.617-1.608 1.378l-.036.206s-.544-1.584-2.92-1.584h-7.228c-3.207 0-4.204 1.466-4.61 3.632l-1.93 10.488c-.41 2.163.32 3.633 3.304 3.633l7.212-.003c2.403 0 3.52-1.762 3.52-1.762l-.326 1.762 10.52.002c.76 0 1.483-.62 1.61-1.38l3.015-16.377H217.53zM189.262.016c-.76 0-1.48.617-1.608 1.378l-4.14 22.475h10.536c.76 0 1.483-.62 1.61-1.38L199.8.017h-10.538zM167.638.018V.015c-1.988 0-3.87 1.612-4.204 3.6l-3.076 16.652c-.332 1.987 1.01 3.6 3 3.6l15.923.002h.022c.653-.007 1.194-.465 1.33-1.077l.01-.055.877-4.764-7.45-.004c-.76 0-1.274-.616-1.147-1.377l1.715-9.304c.127-.763.847-1.38 1.608-1.38h6.157c.76 0 1.48-.617 1.608-1.38l.818-4.514-17.19.002zM141.03 12.877l-.78 4.23c-.288 1.57-1.25 1.57-1.935 1.57-.65 0-1.624 0-1.333-1.57l.778-4.23c.302-1.567 1.057-1.57 1.917-1.57.805 0 1.642.003 1.354 1.57zM144.46.017c-.76 0-1.48.616-1.61 1.377L141.674 7.7s-.527-1.584-2.903-1.584h-7.227c-3.207 0-4.205 1.466-4.61 3.632L125 20.236c-.405 2.163.32 3.633 3.306 3.633l7.212-.003c2.405 0 3.517-1.762 3.517-1.762l-.323 1.762 10.52.002c.76 0 1.482-.62 1.61-1.38L154.983.016h-10.526zM115.068.016c-.76 0-1.48.617-1.608 1.378l-4.14 22.475h10.536c.76 0 1.482-.62 1.61-1.38L125.603.017h-10.536zM97.61 12.876l-.78 4.23c-.29 1.57-1.252 1.57-1.935 1.57-.65 0-1.625 0-1.334-1.57l.78-4.23c.302-1.568 1.055-1.57 1.915-1.57.807 0 1.643.002 1.355 1.57m7.885-6.76h-16.64c-3.182 0-4.18 1.465-4.585 3.632l-1.917 10.487c-.42 2.163.305 3.632 3.29 3.632l16.594.002c3.227-.003 4.225-1.472 4.643-3.635l1.937-10.487c.388-2.167-.34-3.633-3.322-3.633M75.372 5.764c-5.808 0-7.968 2.01-7.968 2.01l.307-1.66h-9.705c-.76 0-1.48.618-1.608 1.38l-3.065 16.373h9.628c.76 0 1.48-.616 1.61-1.377l1.726-9.322s.346-1.867 2.124-1.867c1.474 0 1.24 1.273 1.24 1.273l-2.1 11.295h9.65c.762 0 1.483-.617 1.61-1.378l2.067-11.22c.63-3.52-1.767-5.506-5.515-5.506M48.433 8.606l.46-2.49h-10.54c-.76 0-1.48.616-1.607 1.377L33.73 23.868h10.53c.76 0 1.48-.617 1.607-1.377l.954-5.416c.297-1.77 1.97-3.205 3.74-3.205.703 0 1.315.225 1.778.608l1.565-8.423c-4.084.528-5.47 2.55-5.47 2.55M20.314 13.973h-3.656s2.012-4.696 2.853-6.526c.39-.79 1.23-1.36 2.104-1.36h.478l-1.778 7.886zM15.85 0c-2.78 0-5.438 1.827-6.65 4.347L0 23.867h10.826c.876 0 1.715-.582 2.087-1.38l1.163-2.663 4.94-.004-.898 4.044 11.163.002v-.002c.76 0 1.482-.617 1.61-1.377L35.03 0H15.85z"/></g></svg>
